/* XPM */
static char *result[] = {
/* columns rows colors chars-per-pixel */
"64 64 197 2 ",
"   c #000000",
".  c #0C0000",
"X  c #00000D",
"o  c #150000",
"O  c #1C0000",
"+  c #1B0C00",
"@  c #180F09",
"#  c #0F1414",
"$  c #240100",
"%  c #2E0000",
"&  c #280D00",
"*  c #360000",
"=  c #320E00",
"-  c #2C1200",
";  c #26150B",
":  c #29160B",
">  c #28170B",
",  c #331902",
"<  c #3B1C01",
"1  c #331808",
"2  c #2C1C13",
"3  c #321E13",
"4  c #39230B",
"5  c #2E231E",
"6  c #362114",
"7  c #3A2415",
"8  c #352219",
"9  c #3D2719",
"0  c #3E281A",
"q  c #000023",
"w  c #000036",
"e  c #0A1238",
"r  c #220F30",
"t  c #2B1C33",
"y  c #1F2324",
"u  c #26292B",
"i  c #352A22",
"p  c #3B2D23",
"a  c #352D29",
"s  c #36332D",
"d  c #34253F",
"f  c #383636",
"g  c #431D00",
"h  c #412300",
"j  c #4A2500",
"k  c #512C00",
"l  c #55320B",
"z  c #412714",
"x  c #432916",
"c  c #442C1B",
"v  c #482E1C",
"b  c #502D1E",
"n  c #4A301E",
"m  c #482E20",
"M  c #4D3223",
"N  c #44372C",
"B  c #533525",
"V  c #573827",
"C  c #5B3B28",
"Z  c #463C33",
"A  c #44373F",
"S  c #4C3C3E",
"D  c #603E2B",
"F  c #58402E",
"G  c #544333",
"H  c #594638",
"J  c #694029",
"K  c #694431",
"L  c #644B3A",
"P  c #7A4D37",
"I  c #695135",
"U  c #7D5034",
"Y  c #7B513B",
"T  c #00004F",
"R  c #001441",
"E  c #121F47",
"W  c #11244B",
"Q  c #2A2544",
"!  c #342946",
"~  c #3D3745",
"^  c #09276D",
"/  c #356A42",
"(  c #3A7648",
")  c #3C7D4C",
"_  c #377C50",
"`  c #3B7F50",
"'  c #464545",
"]  c #484545",
"[  c #4A4847",
"{  c #484749",
"}  c #4C4A48",
"|  c #504C4D",
" . c #59524E",
".. c #474E53",
"X. c #594E5B",
"o. c #4D5052",
"O. c #545556",
"+. c #54575B",
"@. c #5B5C5C",
"#. c #645545",
"$. c #615A57",
"%. c #6F604D",
"&. c #68615C",
"*. c #504E6D",
"=. c #5A5D75",
"-. c #685B69",
";. c #636465",
":. c #69636C",
">. c #666969",
",. c #6B6C6C",
"<. c #756D68",
"1. c #6C6D78",
"2. c #72697C",
"3. c #6F707A",
"4. c #717172",
"5. c #76777D",
"6. c #77797E",
"7. c #7B7A7E",
"8. c #82553D",
"9. c #8C5A3C",
"0. c #905B3D",
"q. c #8B5E46",
"w. c #935D44",
"e. c #936146",
"r. c #9A6347",
"t. c #95644A",
"y. c #9A6649",
"u. c #99694D",
"i. c #8F6255",
"p. c #956B51",
"a. c #87775E",
"s. c #9E7055",
"d. c #A46D4F",
"f. c #A56E50",
"g. c #A47352",
"h. c #A27659",
"j. c #AC7C5C",
"k. c #907D65",
"l. c #8D7D75",
"z. c #3F824F",
"x. c #3E8250",
"c. c #43854E",
"v. c #47884D",
"b. c #498A4D",
"n. c #518F4B",
"m. c #5F9B47",
"M. c #52904B",
"N. c #5D9A48",
"B. c #408550",
"V. c #619D47",
"C. c #66A145",
"Z. c #9C8266",
"A. c #9C866A",
"S. c #9D8A6E",
"D. c #A5876A",
"F. c #AF8E6C",
"G. c #A28D71",
"H. c #B18F71",
"J. c #AE9273",
"K. c #AA9679",
"L. c #A8947A",
"P. c #B19677",
"I. c #B49C7C",
"U. c #0F3E8D",
"Y. c #1B3D8A",
"T. c #063F92",
"R. c #1A4597",
"E. c #274998",
"W. c #364E91",
"Q. c #0448A7",
"!. c #0049AD",
"~. c #1B4CA6",
"^. c #1B54B4",
"/. c #395DAB",
"(. c #405691",
"). c #636D8C",
"_. c #6B718A",
"`. c #757887",
"'. c #7C7E86",
"]. c #6A7598",
"[. c #727991",
"{. c #4864A9",
"}. c #7E818F",
"|. c #7D8195",
" X c #83848D",
".X c #87888F",
"XX c #888A96",
"oX c #8B8D95",
"OX c #93949C",
"+X c #B6A282",
"@X c #BCA483",
"#X c #BFA988",
"$X c #878DA1",
"%X c #8991AD",
"&X c #979BA8",
"*X c #9FA2AD",
"=X c #C6AE8A",
/* pixels */
"z.z.z.z.z.z.z.z.z.z.z.z.z.z.z.z.z.z.z.) x.x.z.c.` ) x.B.z.z.z.z.z.z.z.z.c.x.) x.z.c.z.z.x.B.z.z.z.z.z.z.z.z.z.z.z.z.z.z.z.z.z.z.",
"z.z.z.z.z.z.z.z.z.z.z.z.z.z.z.z.z.z.z.c.z.B.z.z.c.x.z.z.z.z.z.z.z.z.z.z.` c.z.B.z.z.x.z.) ) z.z.z.z.z.z.z.z.z.z.z.z.z.z.z.z.z.z.",
"z.z.z.z.z.z.z.z.z.z.z.z.z.z.z.c.z.z.z.z.z.z.z.z.z.x.z.z.z.z.z.z.z.z.z.z.x.c.z.z.z.x.B.) / / ) z.z.z.z.z.z.z.z.z.z.z.z.z.z.z.z.z.",
"z.z.z.z.z.z.z.z.z.z.z.z.z.z.z.z.z.z.z.z.z.z.z.z.z.c.z.z.z.z.z.z.z.z.z.z.z.z.z.z.z.z.) ( / / ) ) z.z.z.z.z.z.z.z.z.z.z.z.z.z.z.z.",
"z.z.z.z.z.z.z.z.z.z.z.z.z.z.z.z.z.z.z.z.z.z.z.z.z.z.z.z.z.z.z.z.z.z.z.z.z.z.z.z.B.) / / ) ) / / ) z.z.z.z.z.z.z.z.z.z.z.z.z.z.z.",
"z.z.z.z.z.z.x.z.z.z.z.z.z.z.z.x.z.z.z.z.z.z.z.z.z.z.z.z.z.z.z.z.z.z.z.z.z.z.z.z.z.) / / ( ) / / z.z.z.z.z.z.z.z.z.z.z.z.z.z.z.z.",
"z.z.z.z.z.z.z.z.z.z.z.z.z.z.z.z.z.z.z.z.z.z.z.z.z.z.z.z.z.z.z.z.z.z.z.z.z.z.z.z.z.z.) ( / / ( ) z.z.z.z.z.z.z.z.z.z.z.z.z.z.z.z.",
"c.z.z.z.z.z.z.z.z.z.z.z.z.z.z.z.z.z.z.z.z.z.z.z.z.z.z.z.z.z.z.z.z.z.z.z.z.z.z.z.B.B.B.) / / z.B.z.z.z.z.z.z.z.z.z.z.z.z.z.z.z.z.",
"z.z.z.z.z.z.z.z.z.z.z.z.z.z.z.z.z.z.z.c.` c.z.z.z.z.z.z.z.z.z.z.z.z.z.z.z.z.z.z.z.z.x.z.) ) ) x.z.z.z.z.z.z.z.z.z.z.c.z.z.z.z.z.",
"z.z.z.z.z.z.z.z.z.z.z.z.z.z.z.z.z.z.z.z.z.z.z.z.z.z.z.z.z.z.z.z.z.z.x.) z.z.z.z.z.z.z.z.B.B.z.z.c.z.z.z.z.z.z.z.z.z.z.z.z.z.z.z.",
"z.z.z.z.z.z.z.z.z.z.z.z.z.c.z.z.z.z.B.x.z.x.z.z.z.z.z.z.z.z.z.z.B.) ` ` ` z.z.z.z.z.z.z.z.z.z.z.z.z.z.z.z.z.z.z.z.z.z.z.z.z.z.z.",
"z.z.z.z.z.z.z.z.z.z.z.z.x.z.z.z.z.z.z.x.z.z.z.z.z.z.z.z.z.z.z.z.B.x.B.b.c.z.z.B.z.z.z.z.z.z.z.z.z.z.z.z.z.z.z.z.z.z.z.z.z.z.z.z.",
"z.z.z.z.z.z.z.z.z.z.z.z.z.x.c.x.z.z.z.) c.@.>.,.,.>.O.z.z.z.z.O.o.c.b.v.v._ ) x.z.z.x.x.B.z.z.z.z.z.z.z.z.z.z.z.z.z.z.z.z.z.z.z.",
"z.z.z.z.z.z.z.z.z.z.z.z.) x.z.z.z.z.z.c.O.            | z.c.|     { x.b.x.x.z.z.z.z.) z.z.z.z.z.z.z.z.z.z.z.z.z.z.z.z.z.z.z.z.z.",
"z.z.z.z.z.z.z.z.z.z.z.z.` ` z.z.z.z.z.x.>.  $ 4 < - o a ;.;.Z O   y @.,.+.B.B.z.z.z.` ` z.x.x.z.z.z.z.z.z.z.z.z.z.z.z.z.z.z.z.z.",
"z.z.z.z.z.z.z.z.z.z.x.c.b.b.B.) z.z.z.c.,.  - c c c c $     < v 2         } z.z.z.c.v.b.c.) c.x.z.z.z.z.z.z.z.z.z.z.z.z.z.z.z.z.",
"z.z.z.c.x.z.z.z.z.z.` v.N.N.v.x.z.z.z.z.4.    2 0 v v 7 $ & 9 c 3 : , , % p ' c.x.v.N.N.v.) z.z.z.z.z.z.z.z.z.z.z.z.z.z.z.z.z.z.",
"z.z.z.z.z.z.z.z.z.z.` b.C.C.b.` ) z.z.x.$.    ; 0 v v c 7 6 c c 7 7 c v M =   ] z.v.C.C.b._ z.z.z.z.z.z.z.z.z.z.z.z.z.z.z.z.z.z.",
"z.z.z.z.z.z.z.z.z.z.x.b.C.C.b.` x.z.z.' a $ 6 0 c c c c c c c c c 9 c v v z = p ' z.v.v.b.x.z.z.z.z.z.z.z.z.z.z.z.c.z.z.z.z.z.z.",
"z.z.z.z.z.z.z.z.z.z._ b.C.C.b.z.x.x.'   o c c n v c c c c c c c c v c c v v M =   ] z.z.x.x.z.z.z.z.z.z.z.z.z.z.z.z.z.z.z.z.z.z.",
"z.z.z.z.z.z.z.z.z.) ` b.C.V.c.z.z.{ i O 7 v c v c c c c c c c c c c c c v v v 7 = p } c.z.z.z.z.z.z.z.z.z.z.z.z.z.z.z.z.z.z.z.z.",
"z.z.z.z.z.z.z.z.z.z.x.v.C.C.v.z.O.  . 0 c v c c x c c c c c c c c x 9 c x c c v M %   O.z.c.z.z.z.z.z.z.z.z.z.z.z.z.z.z.z.z.z.z.",
"z.z.z.z.z.z.z.z.z.z.x.b.C.C.c.c.>.  O 6 c v v c 8 7 c c c c c c 8 3 ; : 3 7 c v v ,   ,.z.z.z.z.z.z.z.z.z.z.z.z.z.z.z.z.z.z.z.z.",
"z.z.z.z.z.z.z.z.z.z.` v.m.m.c.z.,.  O 6 9 0 c 7 3 3 x v c v c x 3 3 v V C C c 9 v 4   @.z.z.z.z.z.z.z.z.z.z.z.z.z.z.z.z.z.z.z.z.",
"z.z.z.z.z.z.z.z.z.z.z.c.c.b.z.z.,.  O 3 6 6 6 3 3 6 x c c v v 9 o 9 Y q.t.Y c + c x & a { z.z.z.z.z.z.z.z.z.z.z.z.z.z.z.z.z.z.z.",
"z.z.z.z.z.z.z.z.z.z.x.) ` ` ` z.,.  $ 6 3 6 2 2 : 6 c c c c 9 x v K w.f.f.w.K m c 9 9 .   O.z.z.z.z.z.z.z.z.z.z.z.z.z.z.z.z.z.z.",
"z.z.z.z.z.z.z.z.z.z.x.x.z.z.z.z.,.  O 6 9 9 6 > + : c v v 7 + c 8.y.r.r.r.r.y.q.B : 3 O   >.z.z.z.z.z.z.z.z.z.z.z.z.z.z.z.z.z.z.",
"z.z.z.z.z.z.z.z.z.z.x.c.z.z.z.z.,.  O 7 c v 6 7 M M c 9 c v c D 8.u.s.h.h.s.t.P m + 2 O   ,.z.z.z.z.z.z.z.z.z.z.z.z.z.z.z.z.z.z.",
"` ` ) x.x.x.z.z.z.z.z.z.z.z.z.z.,.  O 7 c c 7 V 8.8.c + 6 C 8.U b H Z.I.I.k.L 3 @ @ 8 o   O.z.z.z.z.z.z.z.z.z.z.z.z.z.z.z.z.c.x.",
"b.v.c.z.z.c.z.z.z.z.z.z.z.z.z.z.>.  O 8 7 c 7 J t.y.K 9 1 C s.p.: s S.#X=XS.Z .     . i } z.z.z.z.z.z.z.z.z.z.z.z.z.z.z.z.z.z.z.",
"C.N.c.` z.z.z.z.z.z.z.z.z.z.z.z.O.  . 9 3 6 7 F w.u.y.P % V G.A.5 5 A.#X#XA.s .       [ z.z.z.z.z.z.z.z.z.z.z.z.z.z.z.z.z.z.x.x.",
"C.V.M.c.z.z.z.z.z.z.z.z.z.z.z.z.c.[ 5 o - 3 3 C q.d.d.t.L #.K.K.#.L G.@XI.G.%.a . y ' z.z.z.z.z.z.z.z.z.z.z.z.z.z.z.z.z.z.z.v.v.",
"c.b.C.m.v.x.z.z.z.z.z.z.z.z.z.z.z.z.'   o 8 ; V e.f.y.s.Z.L.I.P.G.G.K.I.I.I.K.a.+ +.z.z.z.z.z.z.z.z.z.z.z.z.z.z.z.z.z.z.x.v.N.C.",
"c.n.m.m.v.x.z.z.z.z.z.z.z.z.z.z.z.z.z.' 5 o o M Y w.r.h.H.I.+X+X@X@XI.I.+XI.@XZ.O ;.z.z.z.z.z.z.z.z.z.z.z.z.z.z.z.z.z.z.` v.m.C.",
"C.m.M.v.z.z.z.z.z.z.z.c.z.z.z.z.z.z.z.z.'   o 0 c K t.f.f.D.P.+X+X+X+X+X+XI.F.9.  o.z.z.z.z.z.z.z.c.z.z.z.z.z.z.z.z.z.z.z.z.v.b.",
"C.m.c._ z.z.z.z.z.z.z.z.z.z.z.z.z.z.z.z.x.[ a O   0 P w.0.s.F.P.J.J.J.J.P.D.e.Y  .z.z.z.z.z.z.z.z.z.z.z.z.z.z.z.z.z.z.z.z.z.x.x.",
"b.v.z.z.z.z.z.z.z.z.z.z.z.z.z.z.z.z.z.z.z.z.@.  O 3 c K w.f.g.g.g.h.f.f.j.u.j &.z.z.z.z.z.z.z.z.z.z.z.z.z.z.z.z.z.z.z.z.z.z.z.z.",
"x.x.z.z.z.z.z.z.z.z.z.z.z.z.z.z.z.z.z.z.z.z.4.  O 2 . c Y t.i.i.i.i.i.q.w.J   >.z.z.z.z.z.z.z.z.z.z.z.z.z.z.z.z.z.z.z.z.z.z.z.z.",
"z.z.z.z.z.z.z.z.z.z.z.z.z.z.z.z.z.z.z.z.` c.,.  O 3 ; 3 b L :.2._.2.2.-.} <   ,.z.z.z.z.z.z.z.z.z.z.z.z.z.z.z.z.z.z.z.z.z.z.z.z.",
"z.z.z.z.z.z.z.z.z.z.z.z.z.z.z.z.z.z.z.z.B.B.,.  o 1 3 7 , S =.).)._.[.).f     ,.z.z.z.z.z.z.z.z.z.z.z.z.z.z.z.z.z.z.z.z.z.z.z.z.",
"z.z.z.z.z.z.z.z.z.z.z.z.z.z.z.z.z.z.z.z.B.z.,.    $ 7 x h S =.).=._.$X}.[     ,.x.c.` c.z.z.z.z.z.z.z.z.z.z.z.z.z.z.z.z.z.z.z.z.",
"z.z.z.z.z.z.z.z.z.z.z.z.z.z.z.z.z.c.x.z.z.z.<.4 G H M x h S =._._.|.&XXX} O O <.x.x.c.` z.z.z.z.z.z.z.z.z.z.z.z.z.z.z.z.z.z.z.z.",
"z.z.z.z.z.z.z.z.z.z.z.z.z.z.z.z.z.x.B.z.z.&.A.S.G.k.H < g S =.[.XX&X*XXX[ < P q.$.c.) x.z.z.z.z.z.z.z.z.z.z.z.z.z.z.z.z.z.z.z.z.",
"z.z.z.z.z.z.z.z.z.z.z.z.z.z.z.z.z.z.) z.{   A.=X=XL.I = g S =.].$X%X%X[.~ k y.9.  ..x.B.z.z.z.z.z.z.z.z.z.z.z.z.z.z.z.z.z.z.z.z.",
"z.z.z.z.z.z.z.z.z.z.z.z.z.z.z.z.z.) / z.+.  G.=X@XG.K * g A W./.{.{.{.(.Q l y.9.  +.z.z.z.z.z.z.z.z.z.z.z.z.z.z.z.z.z.z.z.z.z.z.",
"z.z.z.z.z.z.z.z.z.z.z.z.z.z.z.z.z.) / z.5.i a.G.+Xl.X.! ~ ~ E.Q.Q.Q.!.T.E j U Y 1 6.z.z.z.z.z.z.z.z.z.z.z.z.z.z.z.z.z.z.z.z.z.z.",
"z.z.z.z.z.z.z.z.z.z.z.z.z.z.z.z.z.z.z.z.z.@.H ' *.(.W.E.E.E.E.Y.~.~.^.R.W O $ f +.z.z.z.z.z.z.z.z.x.) x.z.z.z.z.z.z.z.z.z.z.z.z.",
"z.z.z.z.z.z.z.z.z.z.z.z.z.z.z.z.z.z.z.z.z.3.u   T ^ R.E.R.U.^ ^ Y.E.E.Y.e   # ..`.c.z.z.z.z.z.z.z.c.v.c.c.z.z.z.z.z.z.z.z.z.z.z.",
"z.z.z.z.z.z.z.z.z.z.z.z.z.z.z.z.z.z.z.z.OX5.u   X r d Q R w q q e Q ! t   y ;.}. XOXz.z.z.x.x.) _ v.N.m.v.z.z.z.z.z.z.z.z.z.z.z.",
"z.z.z.z.z.z.z.z.z.z.z.z.z.z.z.z.z.z.z.1.XX'.O.s S G H G N s f f B G F G s o. XOXoX}.1.z.z.c.c.v.z.b.C.C.b._ z.z.z.z.z.z.z.z.z.z.",
"z.z.z.z.z.z.z.z.z.z.z.z.z.z.z.z.z.z.z.1. X.X'.5.7.6.7.7.7.6.6.6.'.7.7.7.6.'..XoXoX X3.z.z.v.m.N.c.v.C.C.b.z.z.z.z.z.z.z.z.z.z.z.",
"z.z.z.z.z.z.z.z.z.z.z.z.z.z.z.z.z.z.z.z.oX XoXoXoXoXoXoXoXoXoXoXoXoXoXoXoXoX.X X XoXz.z.z.b.C.C.v.c.C.C.b._ z.z.z.z.z.z.z.z.z.z.",
"z.z.z.z.z.z.z.z.z.z.z.x.z.z.z.z.z.z.z.z.x.2.'.'.'.}.'.'.'.'.'.'.'.'.'.'.}.7.'.'.1.z.z.z.z.b.C.C.v.v.C.C.b.z.z.z.z.z.z.z.z.z.z.z.",
"z.z.z.z.z.z.z.z.z.z.z.z.z.z.c.z.z.z.c.x.B.B.) B.z.c.z.z.z.z.z.z.c.z.z.x.z.z.z.z.z.z.z.z.z.b.C.V.v.c.N.N.v._ z.z.z.z.z.z.z.z.z.z.",
"z.z.z.z.z.z.z.z.z.z.z.z.z.z.z.z.z.z.z.z.z.z.) B.z.z.z.z.z.z.z.z.z.z.z.z.z.z.z.z.z.z.z.z.` b.C.C.b.z.c.v.c.z.z.z.z.z.z.z.z.z.z.z.",
"z.z.z.z.z.z.z.z.z.z.z.z.z.z.z.z.z.z.z.z.z.z.B.B.z.z.z.z.z.z.z.z.z.z.z.z.z.z.z.z.z.z.z.z.x.v.m.N.b.x.` x.z.z.z.z.z.z.z.z.z.z.z.z.",
"z.z.z.z.z.z.z.z.z.z.z.z.z.z.z.z.B.B.) ) B.B.B.) B.) ` ` ` c.) B.z.z.z.z.z.z.z.z.z.z.z.z.z.c.v.v.c.z.z.z.z.z.z.z.z.z.z.z.z.z.z.z.",
"z.z.z.z.z.z.z.z.z.z.z.z.z.z.z.z.) B.B.B.B.) B.B.B.B.b.v.c.` B.x.z.z.z.z.z.z.z.z.z.z.z.z.z.z.` ` z.z.z.z.z.z.z.z.z.z.z.z.z.z.z.z.",
"z.z.z.z.z.z.z.z.z.z.z.z.z.z.z.z.) B.B.B.B.B.B.) _ v.V.V.c._ ) B.z.z.z.z.z.z.z.z.z.z.z.z.z.z.z.z.z.z.z.z.z.z.z.z.z.z.z.z.z.z.z.z.",
"x.c.z.z.z.z.z.z.z.z.z.z.z.z.z.z.B.B.) ) B.) ) B.v.n.V.V.M.v.B.B.z.z.z.z.z.z.z.z.z.z.z.z.z.z.z.z.z.z.z.z.z.z.z.z.z.z.z.z.z.z.z.z.",
"z.z.z.z.z.z.z.z.z.z.z.z.z.z.z.z.B.B.B.B.B.) ` v.V.V.b.b.V.V.b.` ) z.z.z.z.z.z.z.z.z.z.z.z.z.z.z.z.z.z.z.z.z.z.z.z.z.z.z.z.z.z.z.",
"z.z.z.z.z.z.z.z.z.z.z.z.z.z.z.z.) B.) B.B.) ` b.V.V.b.b.V.V.b.` x.z.z.z.z.z.z.z.z.z.z.z.z.z.z.z.z.z.z.z.z.z.z.z.z.z.z.z.z.z.z.z.",
"z.z.z.z.z.z.z.z.z.z.z.z.x.z.z.z.) B.B.B.B.) B.B.v.M.V.V.n.B.c.z.x.B.z.z.z.z.z.z.z.z.z.z.z.z.z.z.z.z.z.z.z.z.z.z.z.z.z.z.z.z.z.z.",
"z.z.z.z.z.z.z.z.z.z.z.z.z.z.c.z.B.B.) ) B.B.B.) _ b.C.V.v._ ) z.z.z.x.c.z.z.z.z.z.z.z.z.z.z.z.z.z.z.z.z.z.z.z.z.z.z.z.z.z.z.z.z."
};
