/* XPM */
static char *result[] = {
/* columns rows colors chars-per-pixel */
"64 64 127 2 ",
"   c #010000",
".  c #160000",
"X  c #190000",
"o  c #210000",
"O  c #2D0000",
"+  c #320000",
"@  c #3A0000",
"#  c #360A00",
"$  c #390D00",
"%  c #3D1600",
"&  c #3D1902",
"*  c #3D1D0C",
"=  c #1F2818",
"-  c #3D2107",
";  c #3E2112",
":  c #431D00",
">  c #401F0D",
",  c #401F10",
"<  c #462100",
"1  c #492301",
"2  c #4F2E00",
"3  c #42210E",
"4  c #49260B",
"5  c #4B2A0E",
"6  c #513108",
"7  c #442514",
"8  c #492713",
"9  c #472817",
"0  c #4C2C16",
"q  c #432618",
"w  c #462B1C",
"e  c #4B2C1A",
"r  c #502F17",
"t  c #4D311C",
"y  c #52331D",
"u  c #583A18",
"i  c #452E20",
"p  c #482E20",
"a  c #473022",
"s  c #4C3424",
"d  c #4D3529",
"f  c #4E3A29",
"g  c #523521",
"h  c #553B24",
"j  c #583E26",
"k  c #50372D",
"l  c #523C2C",
"z  c #5A3E29",
"x  c #533E35",
"c  c #563F39",
"v  c #594027",
"b  c #54422F",
"n  c #5D432A",
"m  c #564434",
"M  c #594535",
"N  c #574837",
"B  c #5A4836",
"V  c #5B4638",
"C  c #574838",
"Z  c #5D4C3C",
"A  c #5E503E",
"S  c #62462F",
"D  c #63492E",
"F  c #614730",
"G  c #644A31",
"H  c #6A4F36",
"J  c #614C3D",
"K  c #6A5137",
"L  c #61503E",
"P  c #6E553B",
"I  c #6F583D",
"U  c #70573C",
"Y  c #71593D",
"T  c #356A42",
"R  c #3A7648",
"E  c #3C7C4C",
"W  c #377C50",
"Q  c #3B7F50",
"!  c #5E4F42",
"~  c #5F5140",
"^  c #624F41",
"/  c #645343",
"(  c #685746",
")  c #665847",
"_  c #6C5943",
"`  c #675949",
"'  c #6A5C4B",
"]  c #745D42",
"[  c #6C5A54",
"{  c #6D604E",
"}  c #766044",
"|  c #796246",
" . c #7C664A",
".. c #7F694D",
"X. c #6F6250",
"o. c #726554",
"O. c #766856",
"+. c #766959",
"@. c #796C5C",
"#. c #7D715E",
"$. c #7C6F60",
"%. c #7E7262",
"&. c #806A4E",
"*. c #826D52",
"=. c #867155",
"-. c #887356",
";. c #817565",
":. c #837867",
">. c #847669",
",. c #857A6B",
"<. c #887E6F",
"1. c #837772",
"2. c #8A7F71",
"3. c #3F824F",
"4. c #3E8250",
"5. c #43854E",
"6. c #498A4D",
"7. c #518F4B",
"8. c #5F9B47",
"9. c #52904B",
"0. c #5D9948",
"q. c #408550",
"w. c #619D47",
"e. c #66A245",
"r. c #8D8375",
"t. c #908678",
"y. c #93897B",
/* pixels */
"3.3.3.3.3.3.3.3.3.3.3.3.3.3.3.3.3.3.3.3.3.3.3.3.3.3.3.3.3.3.3.3.3.3.3.3.3.3.3.3.3.3.3.3.3.3.3.3.3.3.3.3.3.3.3.3.3.3.3.3.3.3.3.3.",
"3.3.3.3.3.3.3.3.3.3.3.3.3.3.3.3.3.3.3.3.3.3.3.3.3.3.3.3.3.3.3.3.3.3.3.3.3.3.3.3.3.3.3.3.E 3.3.3.3.3.3.3.3.3.3.3.3.3.3.3.3.3.3.3.",
"3.3.3.3.3.3.3.3.3.3.3.3.3.3.3.3.3.3.3.3.3.3.3.3.3.3.3.3.3.3.3.3.3.3.3.3.3.3.3.3.3.3.3.E T T 3.3.3.3.3.3.3.3.3.3.3.3.3.3.3.3.3.3.",
"3.3.3.3.3.3.3.3.3.3.3.3.3.3.4.3.3.3.3.3.3.3.3.3.3.3.3.3.4.3.3.3.3.3.3.3.3.3.3.3.3.3.3.R T T R E 3.3.3.3.3.3.3.3.3.3.3.3.3.3.3.3.",
"3.3.3.3.3.3.3.3.3.3.3.3.3.3.3.3.3.5.4.3.3.3.3.3.3.3.3.3.3.3.3.3.3.3.3.3.3.3.3.3.q.3.T T R E T T 3.3.3.3.3.3.3.3.3.3.3.3.3.3.3.3.",
"3.3.3.5.3.3.3.3.3.3.3.3.3.3.3.3.3.3.3.3.3.3.3.3.3.3.3.3.3.3.5.3.3.3.3.3.3.3.3.3.3.E T T E R T T E 3.3.3.3.3.3.3.3.3.3.3.3.3.3.3.",
"3.3.3.3.3.3.3.3.3.3.3.3.5.3.3.3.3.3.3.3.3.3.3.3.3.3.3.3.3.3.3.3.3.3.3.3.3.3.3.3.3.3.E R T T R 3.3.3.3.3.3.3.3.3.3.3.3.3.3.3.3.3.",
"3.3.3.3.3.3.3.3.3.3.3.3.3.3.3.3.3.3.3.3.3.3.3.3.3.3.3.3.3.3.3.3.5.3.3.3.3.3.3.3.3.3.4.3.T T 3.3.3.3.3.3.3.3.3.3.3.3.3.3.3.3.3.3.",
"3.3.3.3.5.Q E q.3.3.3.3.3.3.3.3.3.3.3.3.3.3.3.3.Q 5.4.E 5.4.E q.3.3.3.3.4.4.q.3.3.4.4.3.E E 3.3.3.3.3.3.3.3.3.3.3.3.3.3.3.3.3.3.",
"3.3.3.3.E q.q.q.3.3.3.3.3.3.3.3.3.3.3.3.3.3.3.3.5.4.q.5.E q.q.q.3.3.4.E E 5.3.3.5.E 3.q.3.5.3.3.3.3.3.3.3.3.3.3.3.3.3.3.3.3.3.3.",
"3.3.3.3.q.q.5.E 3.3.3.3.3.3.3.3.3.3.3.3.3.3.3.3.E 4.q.4.4.q.5.E 5.Q Q Q 4.q.3.3.3.3.3.3.3.3.3.3.3.3.3.3.3.3.3.3.3.3.3.3.3.3.3.3.",
"3.3.3.3.3.3.Q q.3.3.3.3.3.3.3.3.3.3.3.3.3.3.3.3.q.4.4.E 5.4.Q q.E q.6.6.q.E 3.q.3.3.3.3.3.3.3.3.3.3.3.3.3.3.3.3.3.3.3.3.3.3.3.3.",
"3.Q 5.Q 5.E q.q.q.q.q.E 3.3.3.3.3.3.3.3.E q.q.q.3.4.4.q.5.E q.q.Q 6.0.0.5.W E 4.3.3.3.3.3.3.3.3.3.3.3.3.5.3.3.3.3.3.3.3.3.3.3.3.",
"3.5.E 5.Q 5.q.E E E 5.[   O O   1.3.3.3.q.q.E E 5.E 3.3.Q q.q.E 4.6.0.0.6.4.q.q.3.3.q.4.3.3.E = + O O   [ 4.3.3.3.3.3.3.3.3.3.3.",
"5.3.4.4.5.Q q.E q.q.l / ( / / s p c x c c x c & ! 3.3.+ c x x x c c x x + 4.q.[ w c x c d - 7 7 j / L ` L f 3.3.3.3.3.3.3.3.3.3.",
"E 3.3.q.5.Q q.q.q.E @ L o._ ' l < < 1 : : < : 2 _ 3.5.1 : : : 1 < < < < % E 4.z : : : : 5 g y t l ` ` { / + 3.3.3.3.3.3.3.3.3.3.",
"4.4.4.q.3.3.3.5.4.5.8 [ O.{ X.z y D D D D G D U U @ u ] G G D G D D G G P 6 + P K S D D G D G y M o.' +.' : q.q.E q.q.E q.q.q.q.",
"3.q.4.E 3.3.3.3.q.4.r @.;.+.@.M y H U Y Y Y U Y ] g P  .U U U U Y I I P | H g ] Y I U I U U Y j V @.O.;.+.8 q.Q E q.q.E q.E q.Q ",
"3.3.3.5.3.3.3.3.5.E y $.,.#.;.V g P U Y U U U ] ] g _ &.U U U U U I P I  .L h ] Y I I U I I I h J %.$.,.@.5 q.E q.q.q.q.E q.E q.",
"3.3.5.Q 3.3.3.3.q.Q y %.<.;.>.J g U Y ] | | Y &.&.S P &.] ] ] ] ] ] } ] ..P j } | Y ] ] ] ] } v J ;.$.2.;.g q.q.q.E E q.q.q.E q.",
"3.3.3.3.3.3.3.3.5.3.y >.r.>.,.J y I |  . . . .&.*.H _ &.]  . .&. . . . ...P z |  .|  . . . . .n J ;.;.2.,.z E q.E q.q.q.q.q.E q.",
"3.3.3.3.3.3.3.3.q.E y >.r.,.r.J y I |  . . . .&.*.G ] *... . .]  . . . ...P j |  . . . . . . .n ^ 1.1.2.1.z q.q.q.q.E E E q.E q.",
"3.3.3.3.3.3.3.3.5.5.y >.t.t.t.( y Y  .=...&...=.=.F _ -.*.&.&.&.........=._ v ..=.......&...*.n ^ 2.2.y.1.y E E q.E q.q.E q.q.q.",
"3.3.3.4.3.3.3.3.E 5.y >.y.t.y./ u Y  .=.=.*.*.-.-.F ] -.*.*.*.*.=.=.&.@.=._ v ..=.....=.*.*.*.n ( t.y.y.>.r q.5.q.q.E q.q.q.q.E ",
"3.3.3.3.3.3.3.3.3.3.y >.y.r.t./ y Y &.*.*.*.*.-.*.D Y -.&.&.*.*.*.*.*.*.=._ z *.*.*.*.*.*.*.*.S / t.r.y.>.y 3.3.E q.q.q.E E q.q.",
"3.3.3.3.3.3.3.3.3.3.y ,.y.r.t./ u Y *.*.*.&.*.-.*.D Y -.&.&.*.*...*.*.*.=._ z &.*.&.*.*.*.*.&.S / r.r.y.>.0 3.3.E q.E q.q.q.5.Q ",
"4.q.3.3.3.3.3.3.3.5.0 >.t.r.r.J r U  .&.&.&.&.*.=.S &.=.&.&.&.&.........=._ j *.*.&.&.&.&.&.&.S ^ 2.2.r.>.0 3.3.q.E q.q.q.q.E q.",
"3.E 3.3.3.3.3.3.3.5.8 >.r.,.,.J r U | &.&.| &.&.*.S Y =.&.&.] &. . . . .=.I j *.&. .| |  . . .v ^ 1.>.r.;.y 3.3.q.q.q.E E q.E q.",
"Q Q E 4.4.3.3.3.3.3.5 ;.r.,.,.J r K | &.&.&.| &.&.S ] =.&.&.] &.&. . . .=.P z *.&. .&.|  . . .n J >.>.r.;.0 q.3.Q 5.q.q.q.q.q.E ",
"6.6.5.3.3.3.3.3.3.3.4 %.<.#.;.M r U  .&.&.| &.&.&.n U &.&.] &.&. . . .&.*.] h &.&. .| &.&. .&.n J ;.@.,.%.y 4.q.5.5.Q E q.E Q q.",
"e.0.5.Q 3.3.3.3.3.3.< %.,.#.#.M 0 H ] | Y | } &.&.n U &.] ] ] ] ] ] ] ] &.P h  . .| } | ] | } z V =.@.,.%.0 5.4.Q 5.q.q.E Q Q Q ",
"e.8.9.5.5.4.3.3.3.3.1 $.,.@.#.m 8 G U U Y U P Y U u H &.U U U U Y Y U _ ] G g ] Y P P P P P Y j V @.+.,.$.0 E q.4.E E q.q.5.6.7.",
"5.7.w.w.6.Q E q.q.E : @.%...@.l 8 S U U U U U ] _ g H ] Y Y Y Y P Y Y U ] H e ] ] P P P P P U g c +.o.;.@.4 Q q.E q.q.E Q 6.0.e.",
"5.6.w.w.6.Q q.q.q.q.: +.;.+.@.x 8 F U ] Y U U ] U y G ] K K K K P K K K  .G e ] ] P P Y Y _ ] h F +.o.;.O.4 q.Q 5.q.4.q.Q 6.0.e.",
"w.w.7.6.Q E E q.5.Q : ^ [ ` ' s 0 G H U K U K U U e S P F n n n z z z S ] F q _ P K K K H K K g k ` ( ' ^ : q.q.Q 5.E E 4.5.6.6.",
"e.w.5.W q.q.q.q.E 5.% : 3 7 7 > y F F S S F F H H 8 g z e w e e w e w 9 F z 8 n F F n n n z z g 9 , , , % : E E 5.Q q.q.3.4.Q Q ",
"6.6.q.Q E q.q.E q.q.: ' @.@.@.x : 9 9 e e 9 e e e 7 9 8 7 ( O.O.o.O.( 7 9 9 , 9 e 9 9 9 9 9 7 - c @.@.$.` : q.q.3.3.3.3.3.3.E 4.",
"E 4.E 5.q.q.Q 5.q.E : o.:.%.%.N $ 9 9 , , 7 7 , , , , , 3 ' o./ _ o.' 7 , , 7 e 9 7 9 q 9 7 7 - M ;.$.;.O.: E q.3.3.3.3.3.3.q.q.",
"5.Q q.4.5.E E q.5.Q : ' o.` ` d , g g g g g s g g , 9 e > ! C * $ c Z , e 9 8 j j s f h h g v ; k ( ( o.' : Q q.3.3.3.3.3.3.E q.",
"Q q.E q.Q q.q.q.E 5.: ' X.' ' f > g z S v S z S S 7 g g 7 m ' ` 9 l N , e 7 7 S n v v v v v n ; s ( ` o.( : q.E 3.3.3.3.3.3.3.q.",
"5.3.3.3.3.3.3.3.3.3.: ( ' ( ` f , h j S j S j S D 9 t h - C ) ~ , l C 7 0 9 ; n n v v v v v v 5 d ) ~ X./ & 3.3.3.3.3.3.3.4.4.q.",
"3.3.3.3.3.3.3.3.3.3.< / ` ~ ~ f > g j j j j j n n 9 t h ; m A m k M m * 0 w w n n v v v h v v ; a ~ ~ ` J % 3.3.3.3.3.3.5.E 3.3.",
"3.3.3.3.4.E 5.Q 3.3.: A ) A ~ a 8 g j j v h u n n 9 t h ; f m m / Z d ; 0 ; w n v v h v v h v 9 a ~ Z ) Z $ 3.3.3.3.3.3.5.Q 3.3.",
"3.3.3.3.4.5.Q 5.3.3.% B / A A a > g j j v v v n n ; t y e 9 q q a w q e h t 9 n v v u v v v v ; a ~ Z / M # 3.3.3.3.3.3.E 5.3.3.",
"5.3.3.q.q.3.5.E 3.3.$ m A B C a ; t g v h v h n n 9 t v h 9 7 9 7 3 9 g v t ; n v v v h h h v ; i C C A m + 5.3.3.3.3.3.4.3.3.3.",
"3.3.3.4.3.3.4.4.3.3.+ b A C B t - t g h y h y v n q t v h h t t y y g j v t q n b t v y v t v ; i m m A b + 3.3.3.3.3.3.4.q.5.3.",
"3.3.E 4.3.3.q.3.3.3.+ b Z M M w ; t g h h h h v n ; t v h v h h j h h h h t ; n v h h h h v v ; w m m Z b + 3.3.3.3.5.4.3.3.E 4.",
"3.3.5.Q 5.3.3.3.3.3.+ n L B B w > t h h h h g v n ; t v h h j v j j h h v t ; n v h h h v t v ; w B B A m + 3.3.3.3.3.3.3.3.q.4.",
"3.3.3.3.3.3.3.3.3.3.+ s b l f q ; t g h g g g j n 9 w g g h s y h h y g h e 7 n z g g g g g h 7 ; f f m s + 5.3.3.3.3.3.3.3.3.3.",
"3.3.3.3.3.3.3.3.3.3.O * e e w w w e e e e e e g n 9 7 t e e e e e e e e e 7 7 v g 9 w e e e e w t w 9 w & O 3.3.3.3.3.3.3.3.3.3.",
"3.3.3.3.3.3.3.3.3.3.+ / X.' ' X.Z * & & & & & > 3 & & & % & % % % % & & & & % * : & & & & & * Z { ' ' { A + 3.3.3.3.3.3.3.3.3.3.",
"3.3.3.3.3.3.3.3.3.3.+ Z { ` ' { ~ * f m m C C V C Z J ^ ^ ! / ^ ~ ! J ! ^ Z ! ! ! V C C C l * Z { ` ` { A + 3.3.3.3.3.3.3.3.3.3.",
"3.3.3.3.3.3.3.3.3.3.# f C C C / m ; L ` ` ` ' ' { { o.O.o.O.O.O.O.O.o.o.o.o.X.X.[ X.' ` ' ~ ; m ~ C C C b O 3.3.3.3.3.3.3.3.3.3.",
"3.3.3.3.3.3.3.3.3.3.; l b f f A M * l m b m m m M M m M M M M M m N M C m m C m m M m m C f ; m A l l l t + 3.3.3.3.3.3.3.3.3.3.",
"3.3.3.3.3.3.3.3.3.3.  . . . . o X   . . . . . X X X X X . X X X X . . . . . . . . . . . . .   X o . . .     3.3.3.3.3.3.3.3.3.3.",
"3.3.3.3.3.4.3.3.3.3.3.3.3.3.3.3.3.3.3.3.3.5.3.3.3.3.3.3.4.q.4.4.5.q.4.q.3.3.3.3.3.5.4.4.3.3.3.3.3.3.3.3.3.3.3.3.3.3.3.3.3.3.3.3.",
"3.3.3.3.3.3.3.3.3.3.3.3.3.3.3.3.4.3.3.3.3.3.3.3.E Q 4.5.5.3.E q.4.3.3.3.3.3.3.3.3.3.3.3.3.5.6.6.5.3.3.3.3.3.3.3.3.3.3.3.3.3.3.3.",
"3.3.3.3.3.3.3.3.3.3.3.3.3.3.3.3.5.4.3.3.3.3.3.3.q.5.6.6.3.4.q.4.3.3.3.3.3.3.3.3.3.3.3.3.3.3.Q W 3.3.3.3.3.3.3.3.3.3.3.3.3.3.3.3.",
"3.3.3.3.3.3.3.3.3.3.3.3.3.3.3.3.4.q.q.4.3.3.3.4.W 5.w.w.5.W E q.3.3.3.3.3.3.3.3.3.3.3.3.3.3.3.3.3.3.3.3.3.3.3.3.3.3.3.3.3.3.3.3.",
"3.3.3.3.3.3.3.3.3.3.3.3.3.3.3.3.E 5.4.E 3.3.E q.6.9.w.w.9.5.q.4.3.3.3.3.3.3.3.3.3.3.3.3.3.3.3.3.3.3.3.3.3.3.3.3.3.3.3.3.3.3.3.3.",
"3.3.3.3.3.3.3.3.3.3.3.3.3.3.3.3.4.q.4.5.q.E Q 6.w.w.6.6.w.w.6.Q 3.3.3.3.3.3.3.3.3.3.3.3.3.3.3.3.3.3.3.3.3.3.3.3.3.3.3.3.3.3.3.3.",
"3.3.3.3.3.3.3.3.3.3.3.3.3.3.3.3.E 5.5.Q q.Q Q 6.w.w.7.6.w.w.6.Q E 3.3.3.3.3.3.3.3.3.3.3.3.3.3.3.3.3.3.3.3.3.3.3.3.3.3.3.3.3.3.3.",
"3.3.3.3.3.3.3.3.3.3.5.3.3.3.3.3.q.4.4.q.5.Q Q 5.6.7.w.0.7.5.q.E 4.q.3.3.3.3.3.3.3.3.3.3.3.3.3.3.3.3.3.3.3.3.3.3.3.3.3.3.3.3.5.3.",
"3.3.3.3.3.3.3.3.3.3.3.3.3.3.3.3.4.E 5.4.E 5.5.Q W 6.e.w.6.W 4.3.5.4.3.3.3.3.3.3.3.3.3.3.3.3.3.3.3.3.3.3.3.3.3.3.3.3.3.3.3.3.3.3."
};
