/* XPM */
static char *result[] = {
/* columns rows colors chars-per-pixel */
"64 64 130 2 ",
"   c #2B5E3F",
".  c #406E3B",
"X  c #416F3B",
"o  c #44753D",
"O  c #48783C",
"+  c #497B3E",
"@  c #4B7C3D",
"#  c #2B6444",
"$  c #2C6444",
"%  c #346941",
"&  c #356A42",
"*  c #326A44",
"=  c #3A6C40",
"-  c #3A6E40",
";  c #3B6E40",
":  c #3B6F41",
">  c #3E7140",
",  c #3F7340",
"<  c #3A7648",
"1  c #3C7748",
"2  c #3B794B",
"3  c #3C7848",
"4  c #3C7A4B",
"5  c #3D7D4B",
"6  c #3E7D4B",
"7  c #38794C",
"8  c #3B7B4C",
"9  c #3B7D4D",
"0  c #3C7C4C",
"q  c #3C7D4D",
"w  c #3D7E4D",
"e  c #377C50",
"r  c #377D50",
"t  c #367C51",
"y  c #377D51",
"u  c #387D51",
"i  c #397E50",
"p  c #3A7E50",
"a  c #3A7F50",
"s  c #3B7F50",
"d  c #3D804F",
"f  c #3D814F",
"g  c #3E804E",
"h  c #3E814E",
"j  c #3E814F",
"k  c #3E824F",
"l  c #3F824F",
"z  c #3F834F",
"x  c #398051",
"c  c #3B8050",
"v  c #3C8050",
"b  c #3E8350",
"n  c #3F8350",
"m  c #46834A",
"M  c #42834D",
"N  c #41834F",
"B  c #42844E",
"V  c #44854D",
"C  c #47864C",
"Z  c #46874D",
"A  c #44854E",
"S  c #44864E",
"D  c #45864E",
"F  c #46874E",
"G  c #47884D",
"H  c #48884D",
"J  c #48894D",
"K  c #49894D",
"L  c #4B8B4C",
"P  c #4A8A4D",
"I  c #4B8B4D",
"U  c #4C8B4C",
"Y  c #4B8C4E",
"T  c #4E8D4C",
"R  c #568C42",
"E  c #518F4B",
"W  c #569045",
"Q  c #5B9140",
"!  c #5B9241",
"~  c #5A9142",
"^  c #589145",
"/  c #5B9546",
"(  c #5E9A47",
")  c #5F9B47",
"_  c #51904B",
"`  c #52904B",
"'  c #53924A",
"]  c #54924B",
"[  c #54934B",
"{  c #5A9749",
"}  c #5C9948",
"|  c #5D9948",
" . c #5D9A48",
".. c #5E9A48",
"X. c #408450",
"o. c #408550",
"O. c #418651",
"+. c #659D41",
"@. c #649D42",
"#. c #649D43",
"$. c #659E42",
"%. c #669F43",
"&. c #629D45",
"*. c #619D46",
"=. c #609C47",
"-. c #619D47",
";. c #629D46",
":. c #629E46",
">. c #629E47",
",. c #649F46",
"<. c #66A043",
"1. c #65A045",
"2. c #65A145",
"3. c #66A145",
"4. c #66A245",
"5. c #67A245",
"6. c #64A046",
"7. c #66A247",
"8. c #6BA643",
"9. c #68A344",
"0. c #69A444",
"q. c #69A544",
"w. c #68A446",
"e. c #6AA747",
"r. c #6CA744",
"t. c #6DA843",
"y. c #6EA842",
"u. c #6FA942",
"i. c #6EAA44",
"p. c #6FAB45",
/* pixels */
"l l l l l l l l l l l l l l l l l l l l l l l l l l l l l l l l l l l l l l l l l l l z X.X.z l l l l l l l l l l l l l l l l l ",
"l l l l l l l l l l l l l l l l l l l l l l l l l l l l l l l l l l l l l l l l l l n h 0 0 h n l l l l l l l l l l l l l l l l ",
"l l l l l l l l l l l l l l l l l l l l l l l l l l l l l l l l l l l l l l l l l n O.w & & w O.n l l l l l l l l l l l l l l l ",
"l l l l l l l l l l l l l l l l l l l l l l l l l l l l l l l l l l l l l l l l z h w < % % < w h z l l l l l l l l l l l l l l ",
"l l l l l l l l l l l l l l l l l l l l l l l l l l l l l l l l l l l l l l l l X.0 & % 4 4 % & 0 X.l l l l l l l l l l l l l l ",
"l l l l l l l l l l l l l l l l l l l l l l l l l l l l l l l l l l l l l l l l X.0 & % 4 4 % & 0 X.l l l l l l l l l l l l l l ",
"l l l l l l l l l l l l l l l l l l l l l l l l l l l l l l l l l l l l l l l l z h w < % % < w h z l l l l l l l l l l l l l l ",
"l l l l l l l l l l l l l l l l l l l l l l l l l l l l l l l l l l l l l l l l l n O.w & & w O.n l l l l l l l l l l l l l l l ",
"l l l l l l l l l l l l l l l l l l l l l l l l l l l l l l l l l l l l l l l l l l n h 0 0 h n l l l l l l l l l l l l l l l l ",
"l l l l l l l l l l l l l l l l l l l l l l l l l l l l l l l l l l j j l l l l l l l z X.X.z l l l l l l l l l l l l l l l l l ",
"l l l l l l l l l l l l l l l l l l l l l l l l l l l l l l l l l j s s j l l l l l l l l l l l l l l l l l l l l l l l l l l l ",
"l l l l l l l l l l l l l l l l l l l l l l l l l l l l l l l l j B J J N f l l l l l l l l l l l l l l l l l l l l l l l l l l ",
"l l l l l l l l l l l l l l l l l l l l l l l l l l l l l l l j s J ..| D r f l l l l l l l l l l l l l l l l l l l l l l l l l ",
"l l l l l l l l l l l l j j l l l l l l l l l l l l l l l l l j a L 4.0.' S N j l l j j l l l l l l l l l l l l l l l l l l l l ",
"l l l l l l l l l l l j s s j l l l l l l l l l l l l l l l l j a P :.8.3.{ G v l j s s j l l l l l l l l l l l l l l l l l l l ",
"l l l l l l l l l l j B J J B j l l l l l l l l l l l l l l l j a P ;.y.u.,.I a v N J J B j l l l l l l l l l l l l l l l l l l ",
"l l l l l l l l l j s J  . .J s j l l l l l l l l l l l l l l j a I ,.u.y.>.Y x y S } ..J s j l l l l l l l l l l l l l l l l l ",
"l l l l l l l l l j a L 5.5.L p f j l l l l l l l l l l l l l j s G { 4.r.&.m 7 M ] q.5.L p j l l l l l l l l l l l l l l l l l ",
"l l l l l l l l l j a L 1.1.L i a s j l l l l l l l l l l l l l j N A [ e.#.: & W w.i.7.I p j l l l l l l l l l l l l l l l l l ",
"l l l l l l l l l j a P 6.6.P f G J B j l l l l l l l l l l l l l f u V / Q o + $.t.+.^ C v k l l l l l l l l l l l l l l l l l ",
"l l l l l l l l l j a P 6.,.G S |  .J s j l l l l l l l l l l l l l b 5 : O ! 9.p.%.@ - 6 n l l l l l l l l l l l l l l l l l l ",
"l l l l l l l l l j a L 1.6.Z G 3.5.L a j l l l l l l l l l l l l l X.8 # ; ~ <.@.R = $ 8 X.l l l l l l l l l l l l l l l l l l ",
"l l l l l l l l l j a L 5.4.G Z 6.1.L a j l l l l l l l l l l l l l z g 9 3 , X . > 1 q g z l l l l l l l l l l l l l l l l l l ",
"l l l l l l l l l j s J  .| S H 6.1.L a j l l l l l l l l l l l l l l n O.w *     * w O.n l l l l l l l l l l l l l l l l l l l ",
"l l l l l l l l l l j B J G d P 5.5.L a j l l l l l l l l l l l l l l l n h 0 2 2 0 h n l l l l l l l l l l l l l l l l l l l l ",
"l l l l l l l l l l l j s a a J  . .J s j l l l l l l l l l l l l l l l l z X.o.o.X.z l l l l l l l l l l l l l l l l l l l l l ",
"l l l l l l l l l l l l j j j B J J B j l l l l l l l l l l l l l l l l l l l z z l l l l l l l l l l l l l l l l l l l l l l l ",
"j j l l l l l l l l l l l l l j s s j l l l l l l l l l l l l l l l l l l l l l l l l l l l l l l l l l l l l l l l l l l l l l ",
"a c j l l l l l l l l l l l l l j j l l l l l l l l l l l l l l l l l l l l l l l l l l l l l l l l l l l l l l l l l l l l l l ",
"L J N f l l l l l l l l l l l l l l l l l l l l l l l l l l l l l l l l l l l l l l l l l l l l l l l l l l l l l l l l l l j j ",
"5.| D e f l l l l l l l l l l l l l l l l l l l l l l l l l l l l l l l l l l l l l l l l l l l l l l l l l l l l l l l l j c a ",
"2.) _ F N j l l l l l l l l l l l l l l l l l l l l l l l l l l l l l l l l l l l l l l l l l l l l l l l l l l l l l l j B J L ",
"A T *.=.K s j l l l l l l l l l l l l l l l l l l l l l l l l l l l l l l l l l l l l l l l l l l l l l l l l l l l l j s J  .5.",
"A T *.=.K s j l l l l l l l l l l l l l l l l l l l l l l l l l l l l l l l l l l l l l l l l l l l l l l l l l l l l j s J  .5.",
"3.) _ F N j l l l l l l l l l l l l l l l l l l l l l l l l l l l l l l l l l l l l l l l l l l l l l l l l l l l l l l j B J L ",
"5.| D e f l l l l l l l l l l l l l l l l l l l l l l l l l l l l l l l l l l l l l l l l l l l l l l l l l l l l l l l l j c a ",
"L J N f l l l l l l l l l l l l l l l l l l l l l l l l l l l l l l l l l l l l l l l l l l l l l l l l l l l l l l l l l l j j ",
"a c j l l l l l l l l l l l l l l l l l l l l l l l l l l l l l l l l l l l l l l l l l l l l l l l l l l l l l l l l l l l l l ",
"j j l l l l l l l l l l l l l l l l l l l l l l l l l l l l l l l l l l l l l l l l l l l l l l l l l l l l l l l l l l l l l l ",
"l l l l l l l l l l l l l l l l l l l l l l l l l l l l l l l l l l l l l l l l l l l l l l l l l l l l l l l l l l l l l l l l ",
"l l l l l l l l l l l l l l l l l l l z X.X.z l l l l l l l l l l l l l l l l l l l l l l l l l l l l l l l l l l l l l l l l l ",
"l l l l l l l l l l l l l l l l l l n h 0 0 h n l l l l l l l l l l l l l l l l l l l l l l l l l l l l l l l l l l l l l l l l ",
"l l l l l l l l l l l l l l l l l n O.w & & w O.n l l l l l l l l l l l l l l l l l l l l l l l l l l l l l l l l l l l l l l l ",
"l l l l l l l l l l l l l l l l z h w < % % < w h z l l l l l l l l l l l l l l l l l l l l l l l l l l l l l l l l l l l l l l ",
"l l l l l l l l l l l l l l l l X.0 & % 4 4 % & 0 X.l l l l l l l l l l l l l l l l l l l l l l l l l l l l l l l l l l l l l l ",
"l l l l l l l l l l l l l l l l X.0 & % 4 4 % & 0 X.l l l l l l l l l l l l l l l l l l l l l l l l j j l l l l l l l l l l l l ",
"l l l l l l l l l l l l l l l l z h w < % % < w h z l l l l l l l l l l l l l l l l l l l l l l l j s s j l l l l l l l l l l l ",
"l l l l l l l l l l l l l l l l l n O.w & & w O.n l l l l l l l l l l l l l l l l l l l l l j j j B J J B j l l l l l l l l l l ",
"l l l l l l l l l l l l l l l l l l n h 0 0 h n l l l l l l l l l l l l l l l l l l l l l j s a a J  . .J s j l l l l l l l l l ",
"l l l l l l l l l l l l l l l l l l l z X.X.z l l l l l l l l l l l l l l l l l l l l l j B J G d P 5.5.L a j l l l l l l l l l ",
"l l l l l l l l l l l l l l l l l l l l l l l l l l l l l l l l l l l l l l l l l l l j s J  .| S H 6.1.L a j l l l l l l l l l ",
"l l l l l l l l l l l l l l l l l l l l l l l l l l l l l l l l l l l l l l l l l l l j a L 5.3.G Z 6.1.L a j l l l l l l l l l ",
"l l l l l l l l l l l l l l l l l l l l l l l l l l l l l l l l l l l l l l l l l l l j a L 1.6.Z G 4.5.L a j l l l l l l l l l ",
"l l l l l l l l l l l l l l l l l l l l l l l l l l l l l l l l l l l l l l l l l l l j a L 1.6.H S |  .J s j l l l l l l l l l ",
"l l l l l l l l l l l l l l l l l l l l l l l l l l l l l l l l l l l l l l l l l l l j a L 5.5.P d G J B j l l l l l l l l l l ",
"l l l l l l l l l l l l l l l l l l l l l l l l l l j j l l l l l l l l l l l l l l l j s J  . .J a a s j l l l l l l l l l l l ",
"l l l l l l l l l l l l l l l l l l l l l l l l l j s s j l l l l l l l l l l l l l l l j B J J B j j j l l l l l l l l l l l l ",
"l l l l l l l l l l l l l l l l l l l l l l l l f N K K N f l l l l l l l l l l l l l l l j s s j l l l l l l l l l l l l l l l ",
"l l l l l l l l l l l l l l l l l l l l l l l f e F =.=.F e f l l l l l l l l l l l l l l l j j l l l l l l l l l l l l l l l l ",
"l l l l l l l l l l l l l l l l l l l l l l j N F ` -.-.` F N j l l l l l l l l l l l l l l l l l l l l l l l l l l l l l l l l ",
"l l l l l l l l l l l l l l l l l l l l l j s K =.-.U U -.=.K s j l l l l l l l l l l l l l l l l l l l l l l l l l l l l l l l ",
"l l l l l l l l l l l l l l l l l l l l l j s K =.-.L L -.=.K s j l l l l l l l l l l l l l l l l l l l l l l l l l l l l l l l ",
"l l l l l l l l l l l l l l l l l l l l l l j N F E ( ( E F N j l l l l l l l l l l l l l l l l l l l l l l l l l l l l l l l l ",
"l l l l l l l l l l l l l l l l l l l l l l l f t J 4.4.J t f l l l l l l l l l l l l l l l l l l l l l l l l l l l l l l l l l "
};
