/* XPM */
static char *result[] = {
/* columns rows colors chars-per-pixel */
"64 64 59 1 ",
"  c #3C1E0F",
". c #3D1E10",
"X c #3F2011",
"o c #402111",
"O c #472A1B",
"+ c #492D1D",
"@ c #4A2F20",
"# c #4C3122",
"$ c #40352D",
"% c #433A2F",
"& c #463C33",
"* c #494236",
"= c #4B4339",
"- c #356A42",
"; c #3A7648",
": c #3C7C4C",
"> c #377C50",
", c #3A7F50",
"< c #4F4941",
"1 c #534D44",
"2 c #574F48",
"3 c #565046",
"4 c #575149",
"5 c #5A544C",
"6 c #5D584E",
"7 c #5D5750",
"8 c #5F5B52",
"9 c #625D54",
"0 c #655F58",
"q c #636057",
"w c #65625B",
"e c #68665E",
"r c #6A6760",
"t c #6C6A63",
"y c #747267",
"u c #767468",
"i c #78766B",
"p c #79786B",
"a c #7E7D72",
"s c #817E75",
"d c #3F824F",
"f c #3E8250",
"g c #43854E",
"h c #47884D",
"j c #498A4D",
"k c #518F4B",
"l c #5F9B47",
"z c #52904B",
"x c #5D9A48",
"c c #408550",
"v c #619D47",
"b c #66A145",
"n c #838076",
"m c #86847B",
"M c #89867E",
"N c #46C4E1",
"B c #48C4E1",
"V c #8D8982",
"C c #908C85",
/* pixels */
"dddddddddddddfddg,g,g,,,,,j,g,g,g,g,g,g,:ccccccccc:cddddddg:fg,g",
"dddddddddddddgdd,g,g,gj,j,,,,g,g,g,g,g,gccc::::c:c:cdddd,g,gcfg,",
"ddddddddddddddddg,g,g,g,:,j,g,g,g,g,g,g,:cc:--:cc:ccddddg,g,ff,g",
"dddddddddddddddd,g,g,g,hj,j,,g,g,g,g,g,gcc:;--;:ccc:dddc,g,gc:g,",
"ddddddddddddddddg,g,,,,:,g,,,h:gc::cg,g,c:--::--:cc:cc:cg,gddddg",
"gddddddddddddddd,j,g,:,:g,,:,,::ccc:,g,g::--;:--:cc:c:cc,g,dddg,",
"fddddddddddddddd,:::j#++##########@@++##OOO;--:::fcccc::g,dd:g,g",
"dddddddddddddddd,j::#sussuuusuuuasuuuuuuyyuO--:ccf:c:ccc:gcff,g,",
"ddddddddddddddddddd+npstyyyyyyyyyyyyyyyyyyya+::ccfg,cfg,ffg,gfcd",
"ddddddddddddgfdddddOxiyyyyyyyyyyyyyyyyyyyyya@cc:d:fgdf:gdc,g:fdd",
"ddddddddddddddddddd+Myuyuyuuiyyyyuyyyuyiyyys+::gddg,ddg,ddg,,gdg",
"dddddddddddddddddddOmyyuyuuuuyiyuyyyyyapyyys#cc,dd,gdd,gdd,gg,g,",
"dddddddddddcdfcdddd+nyyyuuuuyiyyuuyyuasayuus#c,gdf:fddd,ddff,ffc",
"ddddddddgddf:fdddddOnyyyuuyyyyyiiuiuyspsyuis#,ccdgdcdcdgddc:g:dd",
":fddddddfdf:,fddddg+Myyyyyyyyiyuyyiyyiyuuuys#gc:ddddffg,g,,g,gdd",
"fg,gddddddfghhg:ddg+mpiiyyiiyiyyiyyiiyyuuuuM#,,gdddd:g,g,gg,g,gd",
"cf,g,g:fc:,hlxhfddc+MiiiuuuuuiiuyyyyyssyuuuM@,ccdddgdfgcfdddddg,",
",gg,g,cfff,jbbh,ddc@MiiiuuuiiiiiyyssyiyyiuuV@,::dddfdd:f,gdcdd,g",
"g:fg,gddf:fjbbh,,,d@MiuinnuiiiiisyyiisyssssM#,:cddddddddg,gfg,g,",
",gcfg,gdgf,jbbjchhg#muuinnpiiiiiyyiiiysssMC9@:ccdddddddd,g:f:g,g",
"dddd,ddd:f,jbvhcvvjo6miipppiuiiisiisssssV799oc::dddddddd,gddfddg",
"ddddgfddcc,jbbhhvbjo66MMMMmMmmmmnnnnMsMCC90=Xcccddddddddg,gdcfg,",
"dddddddd,:,jbbhhvvjo5uie00009999556355665u=5Xc:cdddddddd,gddff,g",
"ddddddddgc,hxvhhbbjoi55000000055555656555s32Xcccddddddddg,ddc:g,",
"dddddddddd:chhfhbvkoi755559095755555656657i1.,c:,gdddddd,gdddddd",
"dddddddddddc,,,hvvjoi4257555555555555655557uXcc:g,gddddddddddddd",
"fcddddddffddd::gjjgot555555555NNB5565656750tXccc,gdddddddddddddd",
"d:ddddddc:gddcfd,::or544555557N89BB55555559tX::cf:ddddddddddddfd",
",,,dddddddg,g,ddc:cXt555555555N559955555559rXddcfddddddddddddddd",
"jhgfdddddddd,gddcc:Xr252522555NNB5555757559eXddfcddddddddddfddf:",
"bxh>:gfdddddgfcdcc:Xr455255555N89BB55555458eXg:f,gdgddddddfgdff,",
"bvkhcfdddddd:fdd:ccXe2242525528529955555898e.,g,g,g,ddddddcf:hhh",
"gkblgfddddddddddfffXe4444444444325454452888rXfdddddddddddddd,hxb",
"hjllhdddddddddddfff.w<444444444NB2444442888w fffdddddddddddd,hlb",
"blzhddddddddddddfff w414444444N762N22242888w.fffdddddddddddddghj",
"bxg>ddddddddddddfffXw<11144444N7NNN21122488w fffddddddddddddddff",
"jhddddddddddddddfff.8114112443N777N13331488w.dddddgfdddddddddd:f",
"ffddddddddddddddfff.w111114113NNN<7<<313158w.dddddddddddddddddff",
"ddddddgdddddddddddf.w1<411413<565<111114317w.ddddddddddddddddddd",
"ddddddddddddddddddd 811<1<&%<1<<1<<111113<3w.ddddddddddddddddddd",
"ddddddddddddddddddd 81<3<%qq44<1NNN<1111114w.ddddddddddddddddddd",
"ddddddddddddddddddf 831<*533444N557<1111111w.ddddddddddddddddddd",
"dddddddddddddddddfc 81<3*84544N<1NN<1<11111w.dddddddddddgddddddd",
"dddddddddddddddddd:X8<1&*q441<6N<5511<11111w.dddddddddddfddddddd",
"ddddddddddddddddd:-- $$&q3441134NNN<111111<r fdddddddddddddddddd",
"ddddddddddddddddd:-- %883544=3=355511<<1112r fffdddddddddddddddd",
"ddddddddddddddddddd; %8<345=33=3<1<<<1<<-228 fffdd,,dddddddddddd",
"dddddddddddddddddddd w<114433=NN1NN<1<1<211w fd:dghhgddddddddddd",
"ddddddddddddddddddd 9111<=33336N1N6==1=3313q df:,hlxhfdddddddddd",
"ddddddddddddddddddd 8<3=3311=33615333<3<333q dhh:hbbh,ddddfgdddd",
"ddddddddddddddddddd 9=3331=3333N3N313333113q hxxchbbjf,gdddddddd",
"ddddddddddddddddddd 93331333=3NN3NN31333133q jbbhhbbj,:ddddddddd",
"ddddddddddddddddddd 85131313=366356333<3111q.jbbhhbbjffcdddddddd",
"ddddddddddddddddddd q611=3333333333113%%133q.jbbhhxxh,:ddddddddd",
"ddddddddddddddddddd 86533333333333333%**313q.jbbh,hhh:cddddddddd",
"dddddddddddfgdddddd q666666533333333%***&*1qXhxxhf,,fffcdddddddd",
"dddddddddddddddd:cf.055565665332331%******=9.ghhg:f:ddddddg,gf:f",
"ddddddddddddddddg,fg      ..            ....ff,ffcfddddddd,g,gfc",
"dgdddddddddddddd,g,gdddd>hvlh>,dddddddddg,g,ddd:fgddddfddddd,gg:",
"dfddddddddddddddg,g,ddddhkvvkhgddddddddd,g,gdddddfddddgdddddgfcf",
"ddddddddddddddddfc:g,gfhxvjjvlhf:dddddddg,g,ddddddddddddddff,g,g",
"ddddddddddddddddc:cfgf,hvvjjvlhfdddddddddd,gddddddddddddddc:g,f:",
"ddddddddddddgddd,g,g,g:chzvvkhddddddddddddddddddddddfc,gdd,g,gcf",
"ddddddddddddfdddg,g,g,df,hbbh>dddddgdddddddddddddddd:fg,gdg,gddd"
};