/* XPM */
static char *result[] = {
/* columns rows colors chars-per-pixel */
"64 64 101 2 ",
"   c #002E00",
".  c #003600",
"X  c #003A00",
"o  c #004400",
"O  c #004A00",
"+  c #004909",
"@  c #005400",
"#  c #005B00",
"$  c #005B0B",
"%  c #0D5E0A",
"&  c #004E1A",
"*  c #005511",
"=  c #00501B",
"-  c #006200",
";  c #005822",
":  c #005D28",
">  c #19562B",
",  c #1D582E",
"<  c #245632",
"1  c #255934",
"2  c #295A36",
"3  c #28573C",
"4  c #255D3B",
"5  c #2D5C3A",
"6  c #305E3C",
"7  c #1D6522",
"8  c #236A23",
"9  c #236034",
"0  c #2B623A",
"q  c #236D3C",
"w  c #32633E",
"e  c #3D6D3D",
"r  c #406F3C",
"t  c #40703D",
"y  c #4D7E3E",
"u  c #2B5F40",
"i  c #2D6342",
"p  c #2C6F42",
"a  c #336540",
"s  c #346942",
"d  c #386D43",
"f  c #3F6748",
"g  c #2B7544",
"h  c #2E7943",
"j  c #2D7449",
"k  c #367145",
"l  c #397346",
"z  c #3A7B44",
"x  c #35754B",
"c  c #3A7648",
"v  c #36784C",
"b  c #3B7C4C",
"n  c #367C51",
"m  c #3A7F50",
"M  c #437741",
"N  c #447942",
"B  c #417F4A",
"V  c #56775D",
"C  c #56795E",
"Z  c #597C5E",
"A  c #547760",
"S  c #597A60",
"D  c #607B6A",
"F  c #3D823F",
"G  c #538E3D",
"H  c #579534",
"J  c #589635",
"K  c #5B9936",
"L  c #519039",
"P  c #5A953B",
"I  c #5D9839",
"U  c #3E8440",
"Y  c #3F824F",
"T  c #3E8250",
"R  c #438444",
"E  c #44854D",
"W  c #49874B",
"Q  c #47894E",
"!  c #4A8B4D",
"~  c #558B42",
"^  c #518F4B",
"/  c #579146",
"(  c #5A9344",
")  c #5E9A47",
"_  c #53924B",
"`  c #5A9749",
"'  c #5D9A48",
"]  c #418551",
"[  c #448852",
"{  c #4A8D51",
"}  c #5E815D",
"|  c #629D46",
" . c #60845F",
".. c #65A145",
"X. c #6AA544",
"o. c #6EA943",
"O. c #6CA949",
"+. c #71AD46",
"@. c #71AE48",
"#. c #5F8360",
"$. c #608360",
/* pixels */
"Y Y Y Y Y Y Y Y Y Y Y Y Y Y Y Y Y Y Y Y Y Y Y Y Y Y Y Y Y Y Y Y Y Y Y Y Y Y Y Y Y Y Y Y Y T Y Y Y Y Y Y Y Y Y Y Y Y Y Y Y Y Y Y ",
"Y Y Y Y Y Y Y Y Y Y Y Y Y Y E Y Y Y Y Y Y Y Y Y Y Y Y Y Y Y Y Y Y Y Y Y Y Y Y Y Y Y Y Y b b Y Y Y Y Y Y Y Y Y Y Y Y Y Y Y Y Y Y ",
"Y Y Y Y Y Y Y Y Y Y Y Y Y Y T Y T Y Y Y Y Y Y Y Y Y Y Y Y Y Y Y Y Y Y Y Y Y Y Y Y Y ] b s s Y E Y Y Y Y Y Y Y Y Y Y Y Y Y Y Y Y ",
"Y Y Y Y Y Y Y Y Y Y Y Y Y Y Y Y E Y Y Y Y Y Y Y Y Y Y Y Y Y Y Y Y Y Y Y Y Y Y Y Y Y Y c s s c Y Y Y Y Y Y Y Y Y Y Y Y Y Y Y Y Y ",
"Y Y Y Y Y Y Y Y Y Y Y Y Y Y Y Y Y Y Y Y Y Y Y Y Y Y Y Y Y Y Y Y Y Y Y Y Y Y Y Y E b s s b b s s b Y Y Y Y Y Y Y Y Y Y Y Y Y Y Y ",
"E Y Y Y Y Y Y Y Y Y Y Y Y Y Y Y Y Y Y Y Y Y Y Y Y Y Y Y Y Y Y Y Y Y Y Y Y Y Y Y T b s s b b s s Y Y Y Y Y Y Y Y Y Y Y Y Y Y Y Y ",
"T Y Y Y Y Y Y Y Y Y Y Y Y Y Y Y Y Y Y Y Y Y Y Y Y Y Y Y Y Y Y Y Y Y Y Y T E Y Y Y Y Y c w e c b Y Y Y Y Y Y Y Y Y Y Y Y Y Y Y Y ",
"Y Y Y Y Y Y Y Y Y Y Y Y Y Y Y Y Y Y Y Y Y Y Y Y Y Y Y Y Y Y E T Y Y Y Y Y Y Y Y E T ] b s s b ] Y Y Y Y Y Y Y Y Y Y Y Y Y Y Y Y ",
"Y Y Y Y Y Y Y Y Y Y Y Y Y Y Y Y Y Y Y Y Y Y Y Y Y Y Y Y Y Y Y Y Y Y Y Y E T Y Y Y Y T b b b Y Y Y Y Y Y Y Y Y Y Y Y Y Y Y Y Y Y ",
"Y Y Y Y Y Y Y Y Y Y Y Y Y Y Y Y Y Y Y Y Y Y Y Y Y Y Y Y Y Y Y Y Y Y b Y Y T Y Y Y Y Y ] T ] E Y Y Y Y Y Y Y Y Y Y Y Y Y Y Y Y Y ",
"Y Y Y Y Y Y Y Y Y Y Y Y Y T Y Y Y Y Y Y Y Y Y Y Y Y Y Y Y Y Y Y Y Y T ] b ] Y Y Y Y Y Y Y Y Y Y Y Y Y Y Y Y Y Y Y Y Y Y Y Y Y Y ",
"Y Y Y Y Y Y Y Y Y Y Y Y Y T E Y Y Y Y Y Y Y Y Y Y Y Y Y Y Y Y Y Y Y Y Y Y Y Y Y Y Y Y Y Y Y Y Y Y Y Y Y Y Y Y Y Y Y Y Y Y Y Y Y ",
"Y Y Y Y Y Y Y T Y Y Y ] Y ] Y Y Y Y Y Y Y Y Y Y Y Y Y S Y Y Y Y Y Y T T E T Y Y E T Y Y Y Y Y Y Y Y Y Y Y Y Y Y Y Y Y Y Y Y Y Y ",
"Y Y Y Y Y Y Y E Y Y Y T Y b Y Y Y Y Y Y E Y Y Y Y Y $.O # % % % % % % # O #.Y Y Y Y Y Y Y Y Y Y Y Y Y Y Y Y Y Y Y Y Y Y Y Y Y Y ",
"Y Y Y Y Y Y Y Y Y Y Y b m m Y Y Y Y Y Y Y Y Y Y E D - I P P P P P P P P H % Z T Y Y m m b T E Y Y Y Y Y Y Y Y Y Y Y Y Y Y Y Y Y ",
"Y Y Y Y Y Y Y Y Y Y Y E Q Q E Y Y Y Y Y Y Y Y Y Z - I @.o.o.o.o.o.o.O.o.@.K - E Y Y Y Q E T T Y Y Y Y Y Y Y Y Y Y Y Y Y Y Y E Y ",
"Y Y Y Y Y T Y Y Y b T Q ) ) Q Y Y Y Y Y Y Y Y Z % K ..X.X.X.X.X.X.X.X.X.X...K % Z Y Y Y Q T Y Y Y Y Y E Y Y Y Y Y Y Y Y Y Y Y Y ",
"Y Y Y Y Y E Y Y Y Y m Q ..X.Q m T b Y Y Y Y Z - K +.X.X.X.X...X...X.X...X.X.+.K # % Y T T m b ] Y Y Y Y Y Y Y Y Y Y Y Y Y Y Y Y ",
"Y Y Y Y Y Y Y Y Y Y Y ! ....Q m T b T Y Y #.% K ..X...X.X.X.X.X.X.X.X.X.X.X.o...U % S E Y m b T Y Y Y Y Y Y Y Y Y Y Y Y Y Y Y Y ",
"Y Y Y Y Y Y Y Y Y Y m ! | ..! Y Q Q E Y D O H @.X.X.X.X.X.....X.X.X.X.X.X.....` Q q X Y Y Y Y Y Y Y Y Y Y Y Y Y Y Y Y Y Y Y Y Y ",
"Y Y Y Y Y Y Y Y Y b T Q | | Q E ) ' Q Y E @ P o.X.X.X...X.X.o.o.X.X.o.X.o..._ Y l 1 o T T Y Y Y Y Y Y Y Y Y Y Y Y Y Y Y E Y Y Y ",
"Y Y Y Y Y Y Y Y Y Y m Q ..| Q Q ..| Y Y T 8 P o.X.X.X.X.X.....) | | | | ..' [ x a 2 & E E Y Y Y Y Y Y Y Y Y Y Y Y Y Y Y T Y Y Y ",
"Y Y Y Y Y Y Y Y Y Y b Q X...Q Q ..' Y A % R ..o.o.X.X.o.o...^ E ! ! ! ! ! ! [ b s 5 < O V Y Y Y Y Y Y Y Y Y Y Y Y Y Y Y Y Y Y Y ",
"Y Y Y Y Y Y Y Y Y T T Q ) ' Q Y Y Y } @ g { ' | ..) | | .._ E n T b v v x b b c a 6 s 9 X V Y Y Y Y Y Y Y Y Y Y Y Y Y Y Y Y Y Y ",
"Y Y Y Y Y Y Y Y Y Y b ] Q Q b Y Y  .O L Y Y E ! Q ! Q ! ! Q E Y T b s a a a a w 6 w b c 9 O C Y Y Y Y Y Y Y Y Y Y Y Y Y Y Y Y Y ",
"Y Y Y Y T E Y Y Y Y T E T m T T Y O K O._ E Y T v T v T n m Y Y T b s w a a i a w l E b s >   Y Y Y Y Y Y Y Y Y Y Y Y Y Y Y Y Y ",
"Y Y Y Y E m T E Y Y Y Y b T Y Y Y # I +.X._ E v n T T n T n b Y Y b b v v b v b b b ] b s < o Y Y Y Y Y Y Y Y Y Y Y Y Y Y Y Y Y ",
"Y Y Y Y T ] b T Y Y Y Y Y Y Y Y Y $ L X.o..._ Q Q Q ! Q ! Q ! W Q Q ! ! ! ! ! Q ] ] ] b s 2 & Y Y Y Y Y Y Y Y Y Y Y Y Y Y Y Y Y ",
"m m T E m E b ] Y Y Y Y Y Y Y Y Y @ z _ ..X.| ) ) ..| ) | | | | | | | | | ....) Q T ] Y s 5 2 O Z Y Y Y Y Y Y Y Y Y Y Y Y E T Y ",
"Q Q ] b Y T T E Y Y Y Y Y Y T E Y : j Q ) o.o.X.o.X.o.X.X.o.X.X.X.X.X.o.o.X.X.) Q T b c w w w , X V Y Y Y Y Y Y Y Y Y Y Y Y Y Y ",
"X.) Q n b Y Y m Y Y Y Y Y Y Y A % x v ! ..o.o.o.X.X.X...X.X.X.X.X.X.X.o.o..._ E [ b d w w w 6 5 , O C Y Y Y Y Y Y Y Y Y Y Y T T ",
"..) ^ Q ] T Y E Y Y Y Y Y Y Z # F { T Q ` ..) ....X.X.X.X.X.X.X.X.X.| | ..' ] n b c w 5 6 w w w a >   Y Y Y Y Y Y Y Y Y Y Y E ! ",
"] ^ | | ! m m T B ] B ] E T O K | ` E b Q Q Q ^ | o.o.o.X.o.X.o.o..._ Q Q [ [ Y l w 6 5 6 6 6 6 w 1 o Y Y Y Y Y Y Y Y b T Q ) X.",
"E { | | Q m ] B m m ] m S O J +.+..._ Q b n n E ) | | | | | | | | ` E x x b b c w 6 a s s s s a w 1 O Y Y Y Y Y Y T Y Y m Q ) ..",
"| | ^ [ ] B m ] ] ] B ] ] # P o.X.X.| ` ] n m E Q Q ! ! ! ! Q ! ! E s a a a w w 5 w c Y b b b c w < o Y Y Y Y Y Y Y Y Y T E Q Q ",
"| | [ n m B ] B m B ] m ] % P X.X.X.o..._ Q ] b T b m m m m m m T b s w w s w a s s b T ] T ] E k 0 = Y Y Y Y Y Y Y Y Y Y Y T m ",
"^ Q B B ] B T ] ] m ] B E % P +.X.X.X.....` Q n n m Y Y b T T b T Y b b b b b b b b b T m m T Y Y c 0 O Z Y Y Y Y Y Y Y Y Y b T ",
"m m m ] m ] ] m B ] m ] T $ G ....X.X.X.o...^ Q Q Q E Y Y T E T Y E T T T T T Q ! Q Q Q Q Q E T ] b s >   Y T E Y Y Y Y Y Y Y ] ",
"B m ] B ] B B ] B ] ] B Y * z _ | X.X...X...| | | ` E n T E m E Y Y T b m b n Q ` ..| | | ) E n T b d 1 o Y Y Y Y Y Y Y Y Y E b ",
"] ] T T m ] T m ] m ] T Y * j ! | o.X.X.X.X.X.o.o..._ E ] b Y ] Y Y Q ! Q Q Q _ | o.o.o.o..._ Q ] b w 2 O Y Y Y Y Y Y Y Y Y ] T ",
"m ] m ] B ] B T m ] B m ] + j { | o.X.X.X.X...X.X.X...` E n m m n Q ` | | | ) | X.X.X.X.X.X...) { b s 1 o Y Y Y Y Y Y Y Y Y Y Y ",
"T B ] T ] m m ] ] B T ] B 7 s E ( ....X.X.X.X.X.X.X.o...^ Q Q Q Q ! ..o.o.X.o.X.X.X.X.X.X...X.) Q k a 2 & Y Y Y T E Y Y Y Y Y Y ",
"] B ] B T B ] B m ] E T % G s a E _ ..o.o.X.X.o.X.X.o.X.| | | | | | X.X.X.X.X.X.X.X.X.X.o..._ E s w 6 5 1 O S Y Y Y Y Y Y Y Y Y ",
"m ] m ] B ] m ] ] ] S O % O.y s x b ' ..| | | | | | | | X.o.X.X.o.X.X.X.X.X.X.X.| | | | ..( E x s w s a a ,   Y Y Y Y Y Y Y Y Y ",
"B ] B ] T ] B T Y Y Y # I o...~ w a E { ! ! ! ! ! { Q _ X.+.o.X.o.X.o.X.X.o.+.| _ Q ! ! { W s s c b Y c a 1 o T Y Y Y Y Y Y Y Y ",
"T m ] m ] m m ] Y Y Y $ G X.o.| y d b m v v v b x x x E ` | | | | | | ..| | | / E x v x v x s s b [ [ b s < o E Y Y Y Y Y Y Y Y ",
"] m T ] ] B ] B Y Y ] * z _ X.o.| / ] x s a a a a a a d E ! { ! ! ! ! ! { Q M e w a a a w s c b Y E T Y s >   Y Y Y Y Y Y Y Y Y ",
"B ] B ] m ] m ] T E T O g [ ( ..+.X._ E s 0 a a a a w a x v v x x v v x v x u 3 w a a a w s Y ] Y Y Y x 0 f S Y Y Y Y Y Y Y Y Y ",
"] B T ] ] B T ] m ] ] X j [ ] _ ..o.X.' W x v v v b v k a u i i u u u a i i 3 5 k n v v b b E ] ] Y k 0 & ] ] E m ] m ] B ] b ] ",
"m ] ] m m ] B T T B T S + h v Q ' ....' ! T { ! ! ! { Q M r r r r M r r r t t M Q ^ ! Q ] T T m b c w < o b b ] ] b E ] T T m E ",
"B T B ] ] B B ] ] B ] B C O h [ ! ! ! Q T [ ) ....| ....| I | | | | | I | | | | | X.X.| Q ] ] E l w w >   ] Y ] E B T b B ] ] b ",
"T B ] m m ] T m m ] m ] T C O h v m b v v W ) X.................| | ......| ......| | ( E b b c w 2 , O V Y Y m m ] T ] T m E ] ",
"] m ] m ] B B ] Y Y Y Y Y Y C O h ] d a w l Q ^ ! { ! ! ! { ! ! ^ ! ^ { { ! ! ! { Q N d s a s a a , . V E T ] E ] T ] m T ] E m ",
"B ] T B m ] ] m Y Y Y Y Y Y Y C O q 0 < < 4 p x v b v x b b x b v v v v x b b b b k 4 < 1 1 1 1 > O V m Y m b Y b T B E ] b B ] ",
"T ] B ] ] m ] ] Y Y Y Y Y Y Y Y #.X o o O O + ; 0 s s s s a s a s a a a a s s a s 0 & o o O O o   C E E Y ] Y Y ] ] E m m E T T ",
"] m ] m B ] B T Y Y Y Y Y Y Y Y Y Y Y Y Y Y ] m f > < 1 1 1 1 1 1 1 2 2 1 1 1 < > f Y Y ] B ] b E T m m b ] Y Y ] b ] b ] ] b ] ",
"Y Y Y Y Y Y Y Y Y Y Y Y Y Y Y Y B T ] B ] m B ] C   o O o O o O O O o O O O o o   S B ] b ] ] ] E m ] b E ] ] b E m Y Y Y Y Y Y ",
"Y Y Y Y Y Y Y Y Y Y Y Y Y Y Y Y ] m m ] B ] ] m B T T T Y ] T T m E Y Y Y Y Y Y Y Y T T ] b m m m E T Y T b ] T T E Y Y Y Y Y Y ",
"Y Y Y Y Y Y Y Y Y Y Y Y Y Y Y Y B ] T B T ] m B ] m ) | Y Y T B E Y Y Y Y Y Y Y Y Y Y Y ] T m b E T Y Y Y Y ] E b b ] Y E m Y Y ",
"Y Y Y Y Y Y Y Y Y Y Y E Y Y Y Y ] m ] ] B T ] ] Q ^ | | _ Q E T T Y Y Y Y Y Y Y Y Y Y Y B T E ] E m Y Y Y Y b ] ] ] E T m E T Y ",
"Y Y Y Y Y Y Y T Y Y Y Y Y Y Y T ] m ] m m ] b Q | | { ! | ) Q m Y Y Y Y Y T T Y Y Y Y Y Y Y Y Y T ] Y Y m ] b m Y Y Y Y E b ] E ",
"Y Y Y Y Y Y Y E Y Y Y Y Y Y Y Y T B B ] ] B m ! | | ! ! | ) Q T Y Y Y Y Y E Y Y Y Y Y Y Y Y Y Y b ] Y Y E Y ] E Y Y Y Y m ] E m ",
"Y Y Y Y Y Y Y Y Y Y Y Y Y Y Y Y m ] m ] B ] m ] Q ^ | ) ^ Q E Y Y Y Y Y Y Y Y Y Y Y m E Y Y Y Y Y Y Y Y Y Y Y Y Y Y Y Y Y T T T ",
"Y Y Y Y Y Y Y Y Y Y Y Y Y Y Y Y ] B ] B ] m ] B n ! | | Q n m Y Y Y Y Y Y Y Y Y ] m E m E Y Y Y Y Y Y Y Y Y Y Y Y Y Y Y Y E ] b "
};